<svg id="Group_516" data-name="Group 516" xmlns="http://www.w3.org/2000/svg" xmlns:xlink="http://www.w3.org/1999/xlink" width="346.185" height="470.875" viewBox="0 0 346.185 470.875">
  <defs>
    <clipPath id="clip-path">
      <rect id="Rectangle_232" data-name="Rectangle 232" width="346.184" height="470.875" fill="none"/>
    </clipPath>
  </defs>
  <g id="Group_515" data-name="Group 515" clip-path="url(#clip-path)">
    <path id="Path_23" data-name="Path 23" d="M33.7,369.143c2.436-11.661,4.849-23.328,7.316-34.982,2.623-12.385,5.219-24.777,7.972-37.134,3.023-13.574,10.035-24.377,22.408-31.292q18.675-10.439,37.36-20.859c6.3-3.525,9.972-8.937,12.249-15.769,4.17-12.511,2.91-23.83-3.735-35.521-11.21-19.724-21.25-40.111-31.731-60.247-6.041-11.609-5.922-23.74-3.05-36.162,3.411-14.74,6.6-29.533,9.878-44.307,1.408-6.354,1.394-6.356-4.812-8.542-9.974-3.513-15.578-11.221-15.791-21.719C71.569,13.161,77.2,4.086,86.64,1.184A34.734,34.734,0,0,1,102.477.661c14.029,2.549,27.9,5.975,41.843,8.982q42.9,9.253,85.816,18.439,49.3,10.646,98.565,21.42c10.283,2.264,17.662,12.184,17.479,22.815a22.894,22.894,0,0,1-18.246,22.137c-2.836.558-4.191,1.612-4.809,4.571q-5.7,27.354-11.794,54.627a43.269,43.269,0,0,1-15.849,24.929q-28.545,22.7-57.238,45.22c-16.295,12.793-19.089,34.249-6.54,50.674,7.069,9.252,13.9,18.69,21.1,27.837,10.327,13.118,12.59,27.6,8.9,43.646-4.179,18.152-7.582,36.48-11.7,54.646a130.327,130.327,0,0,1-6.167,18.526c-1.063,2.709-.677,3.63,2.06,4.2,4.831,1.011,9.8,1.759,14.38,3.5,10.318,3.927,16.059,15.193,13.759,25.928-2.354,10.99-11.792,18.969-22.974,18.038-8.36-.7-16.615-2.857-24.863-4.611q-39.075-8.309-78.11-16.812c-23.329-5.053-46.641-10.184-69.971-15.239q-29.447-6.379-58.92-12.649C6.629,418.832-1.418,408,.208,395.679c1.665-12.611,12.319-20.848,25.506-19.722.435.038.867.1,1.3.149,7.29.762,7.29.762,6.681-6.963m49.892,18.843a23.469,23.469,0,0,0-.56-2.869c-3.948-10.822-1.429-19.551,8.762-24.693A75.974,75.974,0,0,1,114,353.245c22.747-3.532,44.3,1.745,64.928,11.112,9.608,4.363,18.446,10.054,24.866,18.734,6.846,9.255,8.045,19.85-2.051,28.306-.275.229-.289.769-.671,1.9,3.548.873,6.959,1.778,10.4,2.548,8.285,1.852,11.067.6,14.971-7a28.389,28.389,0,0,0,2.537-6.942q6.9-32.232,13.583-64.508a24.056,24.056,0,0,0-4.163-19.916c-7.431-10.074-14.667-20.318-22.586-30-10.156-12.413-13.866-26.087-11.243-41.924,2.712-16.384,9.477-29.775,23.336-39.82,15.2-11.013,29.605-23.114,44.326-34.783,15.232-12.076,17.888-10.554,22.438-35.7,2.408-13.307,5.468-26.5,8.421-39.7.715-3.2-.147-4.578-3.329-5.05-3.015-.449-5.973-1.273-8.958-1.925-25.314-5.524-50.616-11.109-75.948-16.557-31.452-6.763-62.933-13.384-94.388-20.133-7.049-1.513-7-1.589-8.521,5.56-3.4,15.945-6.9,31.868-10.308,47.809-1.441,6.743-1.042,13.27,2.271,19.525,10.56,19.928,21.013,39.915,31.562,59.848,4.03,7.62,8.5,15.239,8.407,24.074a124.967,124.967,0,0,1-2.425,21.57c-2.848,15.221-11.271,26.5-25.036,33.837-11.558,6.164-23,12.553-34.433,18.948a24.637,24.637,0,0,0-12.675,16.919C64.771,321.031,60,342.044,55.739,363.158c-.92,4.564-.409,9.528.15,14.225.234,1.974,1.976,4.941,3.6,5.38,7.674,2.081,15.545,3.445,24.1,5.223" transform="translate(0 0)" fill="#6e9bbc"/>
    <path id="Path_24" data-name="Path 24" d="M122.056,174.39c-13.113-15.141-23.87-31.948-33.6-49.343a413.738,413.738,0,0,1-20.1-40.6c-3.962-9.367-.7-18.855,5.281-26.624,5.95-7.727,14.387-9.7,23.943-7.612,34.963,7.659,69.906,15.428,104.962,22.641,11.654,2.4,19.57,8.283,21.055,20.026,1.2,9.493-.323,19.206-8.606,25.756-15.622,12.352-31.081,24.989-47.449,36.288-12.025,8.3-23.705,14.279-36.465,21.52-.951.54-4.976,2.616-9.021-2.053" transform="translate(49.87 37.002)" fill="#6e9bbc"/>
    <path id="Path_25" data-name="Path 25" d="M73.917,171.865a18.186,18.186,0,0,1,18.308-18.231,18.537,18.537,0,0,1,18.451,18.711,18.381,18.381,0,1,1-36.759-.481" transform="translate(55.332 115.004)" fill="#6e9bbc"/>
    <path id="Path_26" data-name="Path 26" d="M109.883,173.886a17.945,17.945,0,0,1,18.26,18.173,18.4,18.4,0,1,1-18.26-18.173" transform="translate(68.372 130.166)" fill="#6e9bbc"/>
    <path id="Path_27" data-name="Path 27" d="M90.508,146.608a18.186,18.186,0,0,1,18.308-18.231,18.537,18.537,0,0,1,18.451,18.711,18.381,18.381,0,1,1-36.758-.481" transform="translate(67.752 96.098)" fill="#6e9bbc"/>
  </g>
</svg>
